<?xml version="1.0" encoding="UTF-8" standalone="no"?>
<!-- Created with Inkscape (http://www.inkscape.org/) -->

<svg
   width="21.5264mm"
   height="2.4068501mm"
   viewBox="0 0 21.5264 2.4068501"
   version="1.1"
   id="svg1"
   inkscape:version="1.4.2 (ebf0e94, 2025-05-08)"
   sodipodi:docname="aerialitelabs.svg"
   xmlns:inkscape="http://www.inkscape.org/namespaces/inkscape"
   xmlns:sodipodi="http://sodipodi.sourceforge.net/DTD/sodipodi-0.dtd"
   xmlns:xlink="http://www.w3.org/1999/xlink"
   xmlns="http://www.w3.org/2000/svg"
   xmlns:svg="http://www.w3.org/2000/svg">
  <sodipodi:namedview
     id="namedview1"
     pagecolor="#505050"
     bordercolor="#eeeeee"
     borderopacity="1"
     inkscape:showpageshadow="0"
     inkscape:pageopacity="0"
     inkscape:pagecheckerboard="0"
     inkscape:deskcolor="#505050"
     inkscape:document-units="mm"
     inkscape:zoom="11.970271"
     inkscape:cx="40.558815"
     inkscape:cy="0.79363284"
     inkscape:window-width="1920"
     inkscape:window-height="1080"
     inkscape:window-x="0"
     inkscape:window-y="0"
     inkscape:window-maximized="1"
     inkscape:current-layer="svg1" />
  <defs
     id="defs1">
    <linearGradient
       id="linearGradient5"
       inkscape:collect="always">
      <stop
         style="stop-color:#ffffff;stop-opacity:1;"
         offset="0"
         id="stop5" />
      <stop
         style="stop-color:#aaeeff;stop-opacity:1;"
         offset="1"
         id="stop6" />
    </linearGradient>
    <linearGradient
       inkscape:collect="always"
       xlink:href="#linearGradient5"
       id="linearGradient6"
       x1="21.550787"
       y1="0.066310115"
       x2="0.022103371"
       y2="2.3650606"
       gradientUnits="userSpaceOnUse" />
  </defs>
  <path
     d="M 0,2.3496 0.83502,0.03185 H 1.36207 L 2.2225,2.3496 H 1.90182 L 1.12395,0.23505 1.27635,0.31125 H 0.9017 L 1.06362,0.23505 0.31115,2.3496 Z M 0.49847,1.65745 0.60325,1.37805 h 1.00012 l 0.10478,0.2794 z m 2.8067,0.7493 q -0.22225,0 -0.38418,-0.0762 Q 2.75907,2.25435 2.65747,2.13053 2.55587,2.00353 2.50507,1.84795 2.45747,1.69238 2.45747,1.53045 v -0.0572 q 0,-0.1651 0.0476,-0.32067 0.0508,-0.15558 0.1524,-0.2794 0.1016,-0.127 0.25717,-0.20003 0.15875,-0.0762 0.37148,-0.0762 0.27622,0 0.45402,0.12065 0.18098,0.11748 0.2667,0.3048 0.0889,0.18733 0.0889,0.40005 V 1.55898 H 2.59079 v -0.2286 h 1.2827 L 3.80359,1.4542 q 0,-0.18097 -0.0572,-0.31115 -0.0571,-0.13335 -0.17145,-0.20637 -0.1143,-0.073 -0.28892,-0.073 -0.18098,0 -0.30163,0.0826 -0.11747,0.0825 -0.1778,0.22543 -0.0572,0.14287 -0.0572,0.3302 0,0.18097 0.0572,0.32702 0.0603,0.14288 0.18415,0.2286 0.12383,0.0825 0.31433,0.0825 0.20002,0 0.32385,-0.0889 0.127,-0.0889 0.1524,-0.20637 H 4.06707 Q 4.03217,2.01938 3.92737,2.14638 3.82259,2.27338 3.66384,2.34006 3.50509,2.40676 3.30507,2.40676 Z M 4.52754,2.34955 V 0.6541 h 0.2413 v 0.6985 h -0.0127 q 0,-0.37147 0.16192,-0.54292 0.1651,-0.17463 0.49213,-0.17463 h 0.0571 V 0.9081 H 5.35934 q -0.254,0 -0.39053,0.13653 -0.13652,0.13335 -0.13652,0.38735 v 0.91757 z m 1.3843,0 V 0.6541 h 0.3048 V 2.34955 Z M 5.65149,0.8954 V 0.6541 H 6.21664 V 0.8954 Z M 5.99756,0.38105 q -0.1016,0 -0.1524,-0.054 -0.0476,-0.054 -0.0476,-0.13653 0,-0.0825 0.0476,-0.13652 Q 5.89596,0 5.99756,0 q 0.1016,0 0.14923,0.054 0.0508,0.054 0.0508,0.13652 0,0.0825 -0.0508,0.13653 -0.0476,0.054 -0.14923,0.054 z m 1.83515,1.9685 v -0.508 H 7.78191 V 1.25418 q 0,-0.17463 -0.0921,-0.26353 -0.0889,-0.0889 -0.26352,-0.0889 -0.0984,0 -0.2032,0.003 -0.10478,0.003 -0.20003,0.006 -0.0952,0.003 -0.1651,0.01 v -0.2667 q 0.0699,-0.006 0.14605,-0.01 0.0794,-0.006 0.16193,-0.006 0.0825,-0.003 0.15875,-0.003 0.26035,0 0.42545,0.0635 0.1651,0.0603 0.24447,0.20003 0.0794,0.1397 0.0794,0.37782 v 1.07315 z m -0.55563,0.0445 q -0.1905,0 -0.3302,-0.0635 -0.13652,-0.0667 -0.21272,-0.1905 -0.073,-0.12382 -0.073,-0.29845 0,-0.18097 0.0794,-0.30162 Q 6.82306,1.41933 6.97868,1.359 7.13426,1.2955 7.35333,1.2955 H 7.81371 V 1.5241 H 7.34063 q -0.18415,0 -0.28257,0.0889 -0.0984,0.0889 -0.0984,0.2286 0,0.1397 0.0984,0.22543 0.0984,0.0857 0.28257,0.0857 0.10795,0 0.20638,-0.0381 0.0984,-0.0413 0.16192,-0.13335 0.0667,-0.0953 0.073,-0.26035 l 0.0825,0.12065 Q 7.84853,2.02256 7.77553,2.14638 7.70563,2.26703 7.57868,2.33053 7.45485,2.39403 7.27705,2.39403 Z M 8.65186,2.34955 V 0.0318 h 0.3048 V 2.34955 Z M 8.41691,0.2731 V 0.0318 H 8.95666 V 0.2731 Z M 9.6234,2.34955 V 0.6541 H 9.9282 V 2.34955 Z M 9.36305,0.8954 V 0.6541 H 9.9282 V 0.8954 Z M 9.70913,0.38105 q -0.1016,0 -0.1524,-0.054 -0.0476,-0.054 -0.0476,-0.13653 0,-0.0825 0.0476,-0.13652 Q 9.60753,0 9.70913,0 q 0.1016,0 0.14922,0.054 0.0508,0.054 0.0508,0.13652 0,0.0825 -0.0508,0.13653 -0.0476,0.054 -0.14922,0.054 z m 1.47002,1.98755 q -0.1905,0 -0.3302,-0.054 -0.13653,-0.054 -0.21273,-0.18415 -0.073,-0.13335 -0.073,-0.35878 V 0.13972 h 0.2921 v 1.67005 q 0,0.13653 0.073,0.21273 0.0762,0.073 0.21273,0.073 H 11.4395 V 2.36855 Z M 10.2711,0.8827 V 0.6541 h 1.1684 v 0.2286 z m 2.30821,1.524 q -0.22225,0 -0.38417,-0.0762 -0.16193,-0.0762 -0.26353,-0.20002 -0.1016,-0.127 -0.1524,-0.28258 -0.0476,-0.15557 -0.0476,-0.3175 V 1.4732 q 0,-0.1651 0.0476,-0.32067 0.0508,-0.15558 0.1524,-0.2794 0.1016,-0.127 0.25718,-0.20003 0.15875,-0.0762 0.37147,-0.0762 0.27623,0 0.45403,0.12065 0.18097,0.11748 0.2667,0.3048 0.0889,0.18733 0.0889,0.40005 v 0.13653 h -1.50495 v -0.2286 h 1.2827 l -0.0699,0.12382 q 0,-0.18097 -0.0571,-0.31115 -0.0572,-0.13335 -0.17145,-0.20637 -0.1143,-0.073 -0.28893,-0.073 -0.18097,0 -0.30162,0.0826 -0.11748,0.0825 -0.1778,0.22543 -0.0571,0.14287 -0.0571,0.3302 0,0.18097 0.0571,0.32702 0.0603,0.14288 0.18415,0.2286 0.12382,0.0825 0.31432,0.0825 0.20003,0 0.32385,-0.0889 0.127,-0.0889 0.1524,-0.20637 h 0.28575 q -0.0349,0.17462 -0.1397,0.30162 -0.10477,0.127 -0.26352,0.19368 -0.15875,0.0667 -0.35878,0.0667 z M 14.57003,2.3495 V 0.03175 h 0.31115 V 2.3495 Z m 0.24765,0 V 2.0701 h 1.06045 v 0.2794 z m 2.46063,0 v -0.508 h -0.0508 V 1.25413 q 0,-0.17463 -0.0921,-0.26353 -0.0889,-0.0889 -0.26352,-0.0889 -0.0984,0 -0.2032,0.003 -0.10478,0.003 -0.20003,0.006 -0.0952,0.003 -0.1651,0.01 V 0.654 q 0.0699,-0.006 0.14605,-0.01 0.0794,-0.006 0.16193,-0.006 0.0825,-0.003 0.15875,-0.003 0.26035,0 0.42545,0.0635 0.1651,0.0603 0.24447,0.20003 0.0794,0.1397 0.0794,0.37782 V 2.3495 Z M 16.72268,2.394 q -0.1905,0 -0.3302,-0.0635 -0.13652,-0.0667 -0.21272,-0.1905 -0.073,-0.12382 -0.073,-0.29845 0,-0.18097 0.0794,-0.30162 0.0825,-0.12065 0.23812,-0.18098 0.15558,-0.0635 0.37465,-0.0635 h 0.46038 v 0.2286 h -0.47308 q -0.18415,0 -0.28257,0.0889 -0.0984,0.0889 -0.0984,0.2286 0,0.1397 0.0984,0.22543 0.0984,0.0857 0.28257,0.0857 0.10795,0 0.20638,-0.0381 0.0984,-0.0413 0.16192,-0.13335 0.0667,-0.0953 0.073,-0.26035 l 0.0825,0.12065 q -0.0159,0.18098 -0.0889,0.3048 -0.0699,0.12065 -0.19685,0.18415 -0.12383,0.0635 -0.30163,0.0635 z m 2.25107,0.0127 Q 18.7642,2.4067 18.5991,2.3146 18.43718,2.2225 18.34193,2.0479 18.24663,1.8701 18.23715,1.62245 h 0.0825 v 0.72707 h -0.2413 V 0.03177 h 0.3048 V 1.1589 L 18.2752,1.39067 q 0.0127,-0.27622 0.11113,-0.45085 0.0984,-0.17462 0.25717,-0.25717 0.16193,-0.0857 0.3556,-0.0857 0.18098,0 0.3302,0.0699 0.14923,0.0667 0.25718,0.18733 0.10795,0.11747 0.1651,0.27622 0.0571,0.15558 0.0571,0.33655 v 0.0572 q 0,0.18098 -0.0603,0.33973 -0.0572,0.15875 -0.16827,0.28257 -0.11113,0.12065 -0.2667,0.1905 -0.1524,0.0699 -0.33973,0.0699 z M 18.93885,2.14 q 0.17145,0 0.29845,-0.0825 0.127,-0.0825 0.19685,-0.22542 0.0699,-0.14605 0.0699,-0.33655 0,-0.1905 -0.073,-0.33338 -0.0699,-0.14287 -0.19685,-0.21907 -0.127,-0.0794 -0.29527,-0.0794 -0.1524,0 -0.28258,0.0699 -0.13017,0.0667 -0.20955,0.19685 -0.0762,0.127 -0.0762,0.30798 v 0.14605 q 0,0.17462 0.0794,0.29845 0.0794,0.12382 0.20955,0.1905 0.13017,0.0667 0.2794,0.0667 z m 1.88277,0.26035 q -0.33338,0 -0.51753,-0.14287 Q 20.12312,2.1146 20.11677,1.86695 h 0.28575 q 0.006,0.0984 0.0984,0.18733 0.0953,0.0857 0.32068,0.0857 0.2032,0 0.31115,-0.0794 0.10795,-0.0825 0.10795,-0.20003 0,-0.10477 -0.0794,-0.16192 -0.0794,-0.0603 -0.25717,-0.0794 l -0.18415,-0.019 q -0.2413,-0.0254 -0.3937,-0.14287 -0.1524,-0.12065 -0.1524,-0.33655 0,-0.16193 0.0825,-0.27623 0.0825,-0.11747 0.2286,-0.1778 0.14605,-0.0635 0.33655,-0.0635 0.28575,0 0.46355,0.127 0.1778,0.127 0.18415,0.37783 h -0.28575 q -0.003,-0.1016 -0.0952,-0.17145 -0.0889,-0.073 -0.2667,-0.073 -0.1778,0 -0.26988,0.073 -0.0921,0.073 -0.0921,0.18415 0,0.0953 0.0635,0.1524 0.0667,0.0572 0.2159,0.073 l 0.18415,0.0191 q 0.27305,0.0286 0.43815,0.1524 0.1651,0.12065 0.1651,0.3429 0,0.15875 -0.0921,0.28258 -0.0889,0.12065 -0.24765,0.1905 -0.15875,0.0667 -0.36512,0.0667 z"
     id="text2"
     style="font-size:3.175px;font-family:Sora;-inkscape-font-specification:Sora;fill:url(#linearGradient6);stroke-width:0.264583;fill-opacity:1"
     aria-label="Aerialite Labs" />
</svg>
